<mxfile host="65bd71144e" modified="2020-10-06T12:28:07.766Z" agent="5.0 (Windows NT 10.0; Win64; x64) AppleWebKit/537.36 (KHTML, like Gecko) Code/1.49.3 Chrome/83.0.4103.122 Electron/9.2.1 Safari/537.36" etag="WhggIqHZAhB9Se8n6toL" version="13.6.5">
    <diagram id="9_6gIEWsk8SYqdt57Kxq" name="Page-1">
        <mxGraphModel dx="1260" dy="533" grid="1" gridSize="10" guides="1" tooltips="1" connect="1" arrows="1" fold="1" page="1" pageScale="1" pageWidth="827" pageHeight="1169" math="0" shadow="0">
            <root>
                <mxCell id="0"/>
                <mxCell id="1" parent="0"/>
                <mxCell id="C-gh5obO0RlPB5jwihEL-24" value="" style="rounded=0;whiteSpace=wrap;html=1;fontSize=12;fillColor=#FAFAFA;" parent="1" vertex="1">
                    <mxGeometry x="40" y="70" width="920" height="570" as="geometry"/>
                </mxCell>
                <mxCell id="C-gh5obO0RlPB5jwihEL-14" style="edgeStyle=orthogonalEdgeStyle;rounded=0;orthogonalLoop=1;jettySize=auto;html=1;dashed=1;strokeColor=#616161;fontSize=12;shadow=0;strokeWidth=2;" parent="1" source="C-gh5obO0RlPB5jwihEL-1" target="C-gh5obO0RlPB5jwihEL-13" edge="1">
                    <mxGeometry relative="1" as="geometry">
                        <Array as="points">
                            <mxPoint x="500" y="225"/>
                        </Array>
                    </mxGeometry>
                </mxCell>
                <mxCell id="C-gh5obO0RlPB5jwihEL-16" value="Faz publicação" style="edgeLabel;html=1;align=center;verticalAlign=middle;resizable=0;points=[];fontSize=12;labelBackgroundColor=none;fontColor=#000000;" parent="C-gh5obO0RlPB5jwihEL-14" vertex="1" connectable="0">
                    <mxGeometry x="-0.4158" y="2" relative="1" as="geometry">
                        <mxPoint x="2" y="6" as="offset"/>
                    </mxGeometry>
                </mxCell>
                <mxCell id="C-gh5obO0RlPB5jwihEL-15" style="edgeStyle=orthogonalEdgeStyle;rounded=0;orthogonalLoop=1;jettySize=auto;html=1;entryX=1;entryY=0.5;entryDx=0;entryDy=0;entryPerimeter=0;dashed=1;strokeColor=#616161;fontSize=12;strokeWidth=2;" parent="1" source="C-gh5obO0RlPB5jwihEL-1" target="C-gh5obO0RlPB5jwihEL-6" edge="1">
                    <mxGeometry relative="1" as="geometry">
                        <Array as="points">
                            <mxPoint x="410" y="460"/>
                            <mxPoint x="410" y="460"/>
                        </Array>
                    </mxGeometry>
                </mxCell>
                <object placeholders="1" c4Name="Rosie" c4Type="Software System" c4Description="I.A. de análise das despesas dos parlamentares" label="&lt;b&gt;%c4Name%&lt;/b&gt;&lt;div&gt;[%c4Type%]&lt;/div&gt;&lt;br&gt;&lt;div&gt;%c4Description%&lt;/div&gt;" id="C-gh5obO0RlPB5jwihEL-1">
                    <mxCell style="rounded=1;whiteSpace=wrap;html=1;labelBackgroundColor=none;fillColor=#1168BD;fontColor=#ffffff;align=center;arcSize=10;strokeColor=#1168BD;metaEdit=1;metaData={&quot;c4Type&quot;:{&quot;editable&quot;:false}};points=[[0.25,0,0],[0.5,0,0],[0.75,0,0],[1,0.25,0],[1,0.5,0],[1,0.75,0],[0.75,1,0],[0.5,1,0],[0.25,1,0],[0,0.75,0],[0,0.5,0],[0,0.25,0]];" parent="1" vertex="1">
                        <mxGeometry x="420" y="405" width="160" height="110.00000000000001" as="geometry"/>
                    </mxCell>
                </object>
                <object placeholders="1" c4Name="Jarbas" c4Type="Software System" c4Description="Painel que exibe os dados de gastos dos parlamentares com uma classificação" label="&lt;b&gt;%c4Name%&lt;/b&gt;&lt;div&gt;[%c4Type%]&lt;/div&gt;&lt;br&gt;&lt;div&gt;%c4Description%&lt;/div&gt;" id="C-gh5obO0RlPB5jwihEL-3">
                    <mxCell style="rounded=1;whiteSpace=wrap;html=1;labelBackgroundColor=none;fillColor=#1168BD;fontColor=#ffffff;align=center;arcSize=10;strokeColor=#1168BD;metaEdit=1;metaData={&quot;c4Type&quot;:{&quot;editable&quot;:false}};points=[[0.25,0,0],[0.5,0,0],[0.75,0,0],[1,0.25,0],[1,0.5,0],[1,0.75,0],[0.75,1,0],[0.5,1,0],[0.25,1,0],[0,0.75,0],[0,0.5,0],[0,0.25,0]];" parent="1" vertex="1">
                        <mxGeometry x="705" y="400" width="160" height="110.00000000000001" as="geometry"/>
                    </mxCell>
                </object>
                <object placeholders="1" c4Type="Database" c4Technology="Base de dados do senado" c4Description="Dados de cotas parlamentares" label="%c4Type%&lt;div style=&quot;font-size: 12px;&quot;&gt;[Container:&amp;nbsp;%c4Technology%]&lt;/div&gt;&lt;br style=&quot;font-size: 12px;&quot;&gt;&lt;div style=&quot;font-size: 12px;&quot;&gt;%c4Description%&lt;/div&gt;" id="C-gh5obO0RlPB5jwihEL-6">
                    <mxCell style="shape=cylinder;whiteSpace=wrap;html=1;boundedLbl=1;rounded=0;labelBackgroundColor=none;fillColor=#438DD5;fontSize=12;fontColor=#ffffff;align=center;strokeColor=#3C7FC0;metaEdit=1;points=[[0.5,0,0],[1,0.25,0],[1,0.5,0],[1,0.75,0],[0.5,1,0],[0,0.75,0],[0,0.5,0],[0,0.25,0]];metaData={&quot;c4Type&quot;:{&quot;editable&quot;:false}};" parent="1" vertex="1">
                        <mxGeometry x="120" y="370" width="200" height="180" as="geometry"/>
                    </mxCell>
                </object>
                <mxCell id="C-gh5obO0RlPB5jwihEL-11" style="edgeStyle=orthogonalEdgeStyle;rounded=0;orthogonalLoop=1;jettySize=auto;html=1;fontSize=12;dashed=1;strokeColor=#616161;strokeWidth=2;fontColor=#000000;" parent="1" source="C-gh5obO0RlPB5jwihEL-9" target="C-gh5obO0RlPB5jwihEL-3" edge="1">
                    <mxGeometry relative="1" as="geometry"/>
                </mxCell>
                <mxCell id="C-gh5obO0RlPB5jwihEL-12" value="Visualiza dados" style="edgeLabel;html=1;align=center;verticalAlign=middle;resizable=0;points=[];fontSize=12;labelBackgroundColor=none;fontColor=#000000;" parent="C-gh5obO0RlPB5jwihEL-11" vertex="1" connectable="0">
                    <mxGeometry x="-0.2569" y="3" relative="1" as="geometry">
                        <mxPoint x="-3" y="5.289999999999999" as="offset"/>
                    </mxGeometry>
                </mxCell>
                <object placeholders="1" c4Name="Cidadão" c4Type="Person" c4Description="Pessoa interessada sobre &#10;os gastos com &#10;o dinheiro público" label="&lt;b&gt;%c4Name%&lt;/b&gt;&lt;div&gt;[%c4Type%]&lt;/div&gt;&lt;br&gt;&lt;div&gt;%c4Description%&lt;/div&gt;" id="C-gh5obO0RlPB5jwihEL-9">
                    <mxCell style="html=1;dashed=0;whitespace=wrap;fillColor=#08427b;strokeColor=none;fontColor=#ffffff;shape=mxgraph.c4.person;align=center;metaEdit=1;points=[[0.5,0,0],[1,0.5,0],[1,0.75,0],[0.75,1,0],[0.5,1,0],[0.25,1,0],[0,0.75,0],[0,0.5,0]];metaData={&quot;c4Type&quot;:{&quot;editable&quot;:false}};" parent="1" vertex="1">
                        <mxGeometry x="710" y="120" width="150" height="160" as="geometry"/>
                    </mxCell>
                </object>
                <object placeholders="1" c4Name="Twitter da Rosie" c4Type="Software System" c4Description="Conta no twitter" label="&lt;b&gt;%c4Name%&lt;/b&gt;&lt;div&gt;[%c4Type%]&lt;/div&gt;&lt;br&gt;&lt;div&gt;%c4Description%&lt;/div&gt;" id="C-gh5obO0RlPB5jwihEL-13">
                    <mxCell style="rounded=1;whiteSpace=wrap;html=1;labelBackgroundColor=none;fillColor=#999999;fontColor=#ffffff;align=center;arcSize=10;strokeColor=#8A8A8A;metaEdit=1;metaData={&quot;c4Type&quot;:{&quot;editable&quot;:false}};points=[[0.25,0,0],[0.5,0,0],[0.75,0,0],[1,0.25,0],[1,0.5,0],[1,0.75,0],[0.75,1,0],[0.5,1,0],[0.25,1,0],[0,0.75,0],[0,0.5,0],[0,0.25,0]];" parent="1" vertex="1">
                        <mxGeometry x="140" y="170" width="160" height="110.00000000000001" as="geometry"/>
                    </mxCell>
                </object>
                <mxCell id="C-gh5obO0RlPB5jwihEL-25" value="System content diagram for Serenata de Amor" style="text;html=1;align=center;verticalAlign=middle;whiteSpace=wrap;rounded=0;fontSize=11;fontColor=#000000;" parent="1" vertex="1">
                    <mxGeometry x="40" y="610" width="230" height="20" as="geometry"/>
                </mxCell>
                <mxCell id="C-gh5obO0RlPB5jwihEL-26" value="Last modified: 10/06/2020" style="text;html=1;align=center;verticalAlign=middle;whiteSpace=wrap;rounded=0;fontSize=8;fontColor=#000000;" parent="1" vertex="1">
                    <mxGeometry x="40" y="630" width="100" height="10" as="geometry"/>
                </mxCell>
            </root>
        </mxGraphModel>
    </diagram>
</mxfile>